<svg width="22" height="25" viewBox="0 0 22 25" fill="none" xmlns="http://www.w3.org/2000/svg">
<path d="M0.944336 12.4837C0.944336 10.5802 0.944336 9.62844 1.32912 8.79183C1.71391 7.95521 2.43655 7.33581 3.88182 6.097L5.28379 4.89532C7.89611 2.65619 9.20227 1.53662 10.7581 1.53662C12.314 1.53662 13.6202 2.65619 16.2325 4.89532L17.6345 6.09701C19.0797 7.33581 19.8024 7.95521 20.1872 8.79183C20.5719 9.62844 20.5719 10.5802 20.5719 12.4837V18.4286C20.5719 21.0722 20.5719 22.394 19.7507 23.2153C18.9294 24.0365 17.6076 24.0365 14.9641 24.0365H6.55222C3.90864 24.0365 2.58685 24.0365 1.76559 23.2153C0.944336 22.394 0.944336 21.0722 0.944336 18.4286V12.4837Z" stroke="#BA66F0" stroke-width="1.7"/>
<path d="M13.2633 15.6245H8.25342C7.70113 15.6245 7.25342 16.0722 7.25342 16.6245V23.0363C7.25342 23.5886 7.70113 24.0363 8.25342 24.0363H13.2633C13.8156 24.0363 14.2633 23.5886 14.2633 23.0363V16.6245C14.2633 16.0722 13.8156 15.6245 13.2633 15.6245Z" stroke="#BA66F0" stroke-width="1.7" stroke-linecap="round" stroke-linejoin="round"/>
</svg>
