<svg width="21" height="25" viewBox="0 0 21 25" fill="none" xmlns="http://www.w3.org/2000/svg">
<path d="M19.4082 14.6133L20.2582 14.6138V14.6133H19.4082ZM18.7109 17.708L19.4962 18.0333L19.4962 18.0333L18.7109 17.708ZM16.7275 20.6768L17.3286 21.2778L17.3286 21.2778L16.7275 20.6768ZM13.7588 22.6602L14.084 23.4455L14.0841 23.4454L13.7588 22.6602ZM10.2578 23.3574L10.2578 24.2074H10.2578L10.2578 23.3574ZM6.75586 22.6602L6.43055 23.4454L6.43057 23.4455L6.75586 22.6602ZM3.78711 20.6768L3.18603 21.2778L3.18607 21.2778L3.78711 20.6768ZM1.80371 17.708L1.0184 18.0332L1.01842 18.0333L1.80371 17.708ZM1.10742 14.2061L0.257422 14.206V14.2061L1.10742 14.2061ZM15.0907 3.73062L15.6645 4.35779L15.0907 3.73062ZM15.2763 3.7287L15.8497 3.10119L15.2763 3.7287ZM13.8685 5.10565L13.1898 4.59391L13.8685 5.10565ZM19.3852 14.82L20.2167 14.9966L19.3852 14.82ZM19.382 14.8423L20.23 14.9014L19.382 14.8423ZM9.63031 0.886697L9.12467 1.56995V1.56995L9.63031 0.886697ZM9.63031 0.886697L9.12467 1.56995C9.48167 1.83414 11.2865 3.23087 12.922 5.58572L13.6201 5.10085L14.3183 4.61597C12.5388 2.05389 10.5768 0.529664 10.1359 0.203447L9.63031 0.886697ZM13.8685 5.10565L14.5472 5.61739C15.0684 4.92613 15.5027 4.5058 15.6645 4.35779L15.0907 3.73062L14.517 3.10345C14.2918 3.30943 13.7839 3.80594 13.1898 4.59391L13.8685 5.10565ZM15.2763 3.7287L14.703 4.35622C15.2296 4.83735 18.5582 8.12002 18.5582 14.2061H19.4082H20.2582C20.2582 7.4514 16.5573 3.74774 15.8497 3.10119L15.2763 3.7287ZM19.4082 14.2061H18.5582V14.6133H19.4082H20.2582V14.2061H19.4082ZM19.4082 14.6133L18.5582 14.6128C18.5582 14.6138 18.558 14.6234 18.5538 14.6434L19.3852 14.82L20.2167 14.9966C20.2407 14.8835 20.2581 14.7543 20.2582 14.6138L19.4082 14.6133ZM19.382 14.8423L18.5341 14.7832C18.4718 15.6775 18.2682 16.5557 17.9256 17.3828L18.7109 17.708L19.4962 18.0333C19.9105 17.033 20.1552 15.9747 20.23 14.9014L19.382 14.8423ZM18.7109 17.708L17.9257 17.3827C17.5085 18.3897 16.897 19.3051 16.1265 20.0757L16.7275 20.6768L17.3286 21.2778C18.2571 20.3492 18.9937 19.2463 19.4962 18.0333L18.7109 17.708ZM16.7275 20.6768L16.1265 20.0757C15.3559 20.8463 14.4405 21.4577 13.4335 21.8749L13.7588 22.6602L14.0841 23.4454C15.2971 22.943 16.4 22.2064 17.3286 21.2778L16.7275 20.6768ZM13.7588 22.6602L13.4335 21.8748C12.4263 22.292 11.3471 22.5074 10.2578 22.5074L10.2578 23.3574L10.2578 24.2074C11.5712 24.2074 12.8714 23.9477 14.084 23.4455L13.7588 22.6602ZM10.2578 23.3574L10.2578 22.5074C9.1682 22.5074 8.08839 22.2921 7.08115 21.8749L6.75586 22.6602L6.43057 23.4455C7.6435 23.9479 8.94433 24.2074 10.2578 24.2074L10.2578 23.3574ZM6.75586 22.6602L7.08117 21.8749C6.07418 21.4577 5.15871 20.8463 4.38815 20.0757L3.78711 20.6768L3.18607 21.2778C4.11467 22.2064 5.21758 22.943 6.43055 23.4454L6.75586 22.6602ZM3.78711 20.6768L4.38819 20.0758C3.61769 19.3052 3.0061 18.3896 2.589 17.3827L1.80371 17.708L1.01842 18.0333C1.52089 19.2463 2.25762 20.3492 3.18603 21.2778L3.78711 20.6768ZM1.80371 17.708L2.58903 17.3828C2.17209 16.376 1.95748 15.2959 1.95742 14.206L1.10742 14.2061L0.257422 14.2061C0.257491 15.5189 0.515956 16.8201 1.0184 18.0332L1.80371 17.708ZM1.10742 14.2061L1.95742 14.2061C1.95751 10.5013 3.70428 7.49125 5.61239 5.30928C7.51973 3.12819 9.53266 1.84039 9.92037 1.60252L9.47586 0.878013L9.03136 0.153504C8.56793 0.43783 6.39673 1.8299 4.33268 4.19019C2.26939 6.54962 0.257518 9.9425 0.257422 14.206L1.10742 14.2061ZM15.0907 3.73062L15.6645 4.35779C15.4095 4.59099 14.99 4.61845 14.703 4.35622L15.2763 3.7287L15.8497 3.10119C15.4553 2.7409 14.8792 2.77213 14.517 3.10345L15.0907 3.73062ZM13.6201 5.10085L12.922 5.58572C13.3116 6.14675 14.1365 6.16207 14.5472 5.61739L13.8685 5.10565L13.1898 4.59391C13.4754 4.21514 14.0471 4.2256 14.3183 4.61597L13.6201 5.10085ZM19.3852 14.82L18.5538 14.6434C18.5447 14.6861 18.5376 14.7329 18.5341 14.7832L19.382 14.8423L20.23 14.9014C20.2275 14.9368 20.2226 14.9687 20.2167 14.9966L19.3852 14.82ZM9.63031 0.886697L10.1359 0.203447C9.83085 -0.0223377 9.39827 -0.0716114 9.03136 0.153504L9.47586 0.878013L9.92037 1.60252C9.80212 1.67507 9.65619 1.71573 9.50147 1.70612C9.34922 1.69667 9.22038 1.64078 9.12467 1.56995L9.63031 0.886697Z" fill="#979797"/>
<path d="M15.1719 18.1055L14.3233 18.1552L14.3236 18.1601L15.1719 18.1055ZM15.1836 18.4268H16.0336V18.4267L15.1836 18.4268ZM10.2568 23.3545L10.2568 24.2045H10.2568V23.3545ZM5.33008 18.4268L4.48008 18.4267V18.4268H5.33008ZM5.33984 18.123L6.18829 18.1747L6.18854 18.1701L5.33984 18.123ZM10.1734 10.7462L9.66318 10.0663L10.1734 10.7462ZM10.3402 10.7461L9.82996 11.4259C10.1183 11.6423 11.215 12.499 12.2587 13.7412C13.3159 14.9995 14.2292 16.5478 14.3233 18.1552L15.1719 18.1055L16.0204 18.0558C15.8946 15.9073 14.7065 14.0119 13.5602 12.6476C12.4003 11.2671 11.1912 10.322 10.8505 10.0663L10.3402 10.7461ZM15.1719 18.1055L14.3236 18.1601C14.3298 18.2563 14.3336 18.3437 14.3336 18.4268L15.1836 18.4268L16.0336 18.4267C16.0336 18.2939 16.0276 18.1672 16.0201 18.0508L15.1719 18.1055ZM15.1836 18.4268H14.3336C14.3336 20.6788 12.5083 22.5045 10.2568 22.5045V23.3545V24.2045C13.4476 24.2045 16.0336 21.6172 16.0336 18.4268H15.1836ZM10.2568 23.3545L10.2569 22.5045C8.00546 22.5044 6.18008 20.6786 6.18008 18.4268H5.33008H4.48008C4.48008 21.6172 7.06622 24.2043 10.2568 24.2045L10.2568 23.3545ZM5.33008 18.4268L6.18008 18.4268C6.18008 18.3449 6.18301 18.2611 6.18827 18.1747L5.33984 18.123L4.49141 18.0714C4.48444 18.1859 4.48009 18.3046 4.48008 18.4267L5.33008 18.4268ZM5.33984 18.123L6.18854 18.1701C6.27772 16.5603 7.19033 15.009 8.24918 13.7475C9.29437 12.5023 10.3942 11.6431 10.6836 11.426L10.1734 10.7462L9.66318 10.0663C9.32141 10.3228 8.10875 11.2705 6.94707 12.6546C5.79905 14.0223 4.61044 15.9226 4.49115 18.076L5.33984 18.123ZM10.3402 10.7461L10.8505 10.0663C10.4962 9.80037 10.0162 9.80139 9.66318 10.0663L10.1734 10.7462L10.6836 11.426C10.5705 11.5108 10.4224 11.5671 10.2572 11.5672C10.092 11.5673 9.94345 11.5111 9.82996 11.4259L10.3402 10.7461Z" fill="#979797"/>
</svg>
