<svg width="24" height="24" viewBox="0 0 24 24" fill="none" xmlns="http://www.w3.org/2000/svg">
<path d="M11.7578 1.83398C14.4238 1.83415 16.585 3.99606 16.585 6.66211C16.5848 9.32805 14.4237 11.4891 11.7578 11.4893C9.09179 11.4893 6.92982 9.32816 6.92969 6.66211C6.92969 3.99595 9.09171 1.83398 11.7578 1.83398Z" stroke="#979797" stroke-width="1.7" stroke-linecap="round"/>
<path d="M2.1147 17.8326C2.99946 15.5691 5.36576 14.4683 7.79604 14.4683H15.7189C18.1492 14.4683 20.5155 15.5691 21.4002 17.8326C21.8533 18.9917 22.2442 20.4018 22.3645 21.9848C22.4064 22.5355 21.9549 22.9845 21.4026 22.9845H2.1123C1.56002 22.9845 1.10854 22.5355 1.1504 21.9848C1.27073 20.4018 1.66161 18.9917 2.1147 17.8326Z" stroke="#979797" stroke-width="1.7" stroke-linecap="round"/>
</svg>
