<svg width="26" height="26" viewBox="0 0 26 26" fill="none" xmlns="http://www.w3.org/2000/svg">
<path d="M25.8493 12.5985C25.8493 5.7336 20.2841 0.168457 13.4193 0.168457C6.5544 0.168457 0.989258 5.7336 0.989258 12.5985C0.989258 18.8026 5.53475 23.945 11.4771 24.8775V16.1915H8.32102V12.5985H11.4771V9.85997C11.4771 6.7447 13.3328 5.02393 16.1721 5.02393C17.532 5.02393 18.9545 5.2667 18.9545 5.2667V8.32564H17.3871C15.843 8.32564 15.3614 9.28382 15.3614 10.2669V12.5985H18.8088L18.2577 16.1915H15.3614V24.8775C21.3038 23.945 25.8493 18.8027 25.8493 12.5985Z" fill="#1877F2"/>
<path d="M18.2578 16.1915L18.8089 12.5985H15.3615V10.2669C15.3615 9.28373 15.843 8.32564 17.3872 8.32564H18.9545V5.2667C18.9545 5.2667 17.5321 5.02393 16.172 5.02393C13.3329 5.02393 11.4771 6.7447 11.4771 9.85997V12.5985H8.32104V16.1915H11.4771V24.8775C12.1196 24.9781 12.769 25.0286 13.4193 25.0285C14.0696 25.0286 14.719 24.9781 15.3615 24.8775V16.1915H18.2578Z" fill="white"/>
</svg>
