<svg width="26" height="26" viewBox="0 0 26 26" fill="none" xmlns="http://www.w3.org/2000/svg">
<g clip-path="url(#clip0_12_19268)">
<path fill-rule="evenodd" clip-rule="evenodd" d="M6.33773 12.5978C6.33773 11.8083 6.46885 11.0514 6.70288 10.3415L2.60655 7.21338C1.8082 8.83434 1.3584 10.6608 1.3584 12.5978C1.3584 14.5331 1.80764 16.3585 2.60489 17.9783L6.699 14.8441C6.46719 14.1375 6.33773 13.3834 6.33773 12.5978Z" fill="#FBBC05"/>
<path fill-rule="evenodd" clip-rule="evenodd" d="M13.5297 5.41562C15.2448 5.41562 16.794 6.02335 18.0111 7.0178L21.552 3.48197C19.3943 1.60355 16.628 0.443359 13.5297 0.443359C8.71971 0.443359 4.58576 3.19413 2.6062 7.21337L6.70253 10.3415C7.64639 7.47635 10.3369 5.41562 13.5297 5.41562Z" fill="#EB4335"/>
<path fill-rule="evenodd" clip-rule="evenodd" d="M13.5297 19.7799C10.3369 19.7799 7.64639 17.7191 6.70253 14.854L2.6062 17.9816C4.58576 22.0014 8.71971 24.7521 13.5297 24.7521C16.4985 24.7521 19.3329 23.698 21.4601 21.7229L17.5718 18.7169C16.4747 19.408 15.0932 19.7799 13.5297 19.7799Z" fill="#34A853"/>
<path fill-rule="evenodd" clip-rule="evenodd" d="M25.1482 12.5976C25.1482 11.8794 25.0376 11.1059 24.8716 10.3877H13.5298V15.0837H20.0582C19.7318 16.6848 18.8433 17.9157 17.5719 18.7168L21.4602 21.7228C23.6948 19.6488 25.1482 16.5594 25.1482 12.5976Z" fill="#4285F4"/>
</g>
<defs>
<clipPath id="clip0_12_19268">
<rect width="24.8613" height="24.8613" fill="white" transform="translate(0.988525 0.167969)"/>
</clipPath>
</defs>
</svg>
