<svg width="280" height="68" viewBox="0 0 280 68" fill="none" xmlns="http://www.w3.org/2000/svg">
<path d="M140 59.7285C196.281 59.7285 253.596 62.7376 279.777 64.3135V67.2363C253.717 65.6604 196.335 62.6426 140 62.6426C83.6644 62.6426 26.2821 65.6646 0.22168 67.2363V64.3135C26.403 62.7376 83.7186 59.7285 140 59.7285ZM0.22168 9.08301C6.03312 9.44153 11.8445 9.77522 17.6602 10.0879V17.3213C14.2917 17.1962 10.9192 17.0624 7.55078 16.9248V29.7988C9.81037 29.8197 12.0741 29.8444 14.3379 29.8652V37.1533C12.0741 37.17 9.81454 37.1865 7.55078 37.2031V58.5479C5.10775 58.6896 2.66445 58.8362 0.225586 58.9863L0.22168 58.9941V9.08301ZM269.53 9.1582C271.406 9.04981 272.995 9.26219 274.296 9.8125C275.596 10.3627 276.647 11.2008 277.451 12.3262C278.256 13.456 278.844 14.82 279.215 16.4209C279.59 18.0216 279.773 19.8098 279.773 21.7773C277.376 22.0775 274.979 22.3696 272.582 22.6572C272.582 21.836 272.541 21.0064 272.466 20.1768C272.387 19.3473 272.244 18.5886 272.04 17.9092C271.836 17.2296 271.544 16.6827 271.156 16.2783C270.773 15.8742 270.277 15.6869 269.664 15.7119C268.714 15.7536 268.059 16.1705 267.696 16.9668C267.334 17.7631 267.154 18.8722 267.154 20.2979C267.154 22.1445 267.663 23.9037 268.68 25.6045C269.697 27.3054 271.064 29.2943 272.786 31.5996C274.846 34.326 276.522 36.8693 277.822 39.208C279.123 41.5425 279.773 44.144 279.773 46.9746C279.773 48.7631 279.582 50.4147 279.198 51.9238C278.815 53.4329 278.21 54.7299 277.385 55.8096C276.559 56.889 275.509 57.7056 274.229 58.2559C272.954 58.8061 271.407 59.0231 269.598 58.9189H269.602C267.588 58.8022 265.916 58.3811 264.582 57.6641C263.248 56.947 262.193 55.9675 261.426 54.7168C260.655 53.4661 260.109 51.9861 259.779 50.2686C259.45 48.5509 259.287 46.6248 259.287 44.4902C261.684 44.3318 264.081 44.1697 266.479 44.0029C266.479 45.0533 266.517 46.0703 266.596 47.0498C266.675 48.0294 266.82 48.9094 267.037 49.6973C267.254 50.4852 267.567 51.1192 267.988 51.5986C268.405 52.0779 268.943 52.3321 269.602 52.3613C270.685 52.4071 271.457 51.9488 271.907 50.9775C272.357 50.0062 272.586 48.8177 272.586 47.417C272.586 46.0162 272.211 44.5483 271.465 43.0225C270.719 41.4967 269.826 40.0582 268.784 38.6992C267.021 36.3855 265.478 34.2715 264.152 32.333C262.827 30.3987 261.801 28.5101 261.063 26.6592C260.33 24.8082 259.963 22.874 259.963 20.8438C259.963 19.247 260.18 17.7629 260.609 16.3955C261.039 15.0282 261.668 13.8191 262.493 12.7686C263.319 11.718 264.319 10.8759 265.495 10.2422C266.671 9.60855 268.017 9.24578 269.53 9.1582ZM26.8203 22.5742V57.5146C24.5357 57.6272 22.2504 57.7434 19.9658 57.8643V22.4033C22.2504 22.4617 24.5357 22.52 26.8203 22.5742ZM255.352 17.584C252.208 17.6965 249.06 17.8001 245.917 17.9043V30.3613C248.181 30.3447 250.44 30.3282 252.704 30.3115V37.2031C250.44 37.1865 248.181 37.1739 245.917 37.1572V50.1807C249.06 50.2849 252.208 50.3894 255.352 50.502V57.627C249.765 57.3435 244.175 57.0807 238.584 56.8389V11.2471C244.175 11.0053 249.761 10.7425 255.352 10.459V17.584ZM38.4268 11.1133C40.6905 19.1802 42.9543 27.1347 45.2139 34.9932C45.4181 35.6893 45.6219 36.3859 45.8262 37.082H46.2354V11.4512C48.4739 11.5429 50.7166 11.6344 52.9551 11.7178V56.3643C50.8957 56.4435 48.8358 56.526 46.7764 56.6094C44.2876 48.872 41.7993 41.0345 39.3105 33.0762C39.1063 32.3717 38.9015 31.6627 38.6973 30.9541H38.2891V56.9727C36.0503 57.0727 33.8071 57.1768 31.5684 57.2852L31.5723 57.2812V10.7969C33.8569 10.9053 36.1421 11.0091 38.4268 11.1133ZM233.836 56.6309C231.551 56.535 229.262 56.4469 226.978 56.3594V23.1367C229.262 23.095 231.551 23.0498 233.836 23.0039V56.6309ZM74.6172 12.4395V55.6299C72.3328 55.6966 70.0442 55.7629 67.7598 55.8379V53.7041C66.8552 54.4211 65.9587 55.0588 65.0791 55.6133C64.1953 56.1678 63.2777 56.4637 62.3271 56.4971V56.501C61.1975 56.5385 60.2303 56.2638 59.4424 55.6719C58.6503 55.0799 58.0502 54.2915 57.6416 53.3076C57.2331 52.3279 57.0283 51.3026 57.0283 50.2354V29.1816C57.0283 28.1144 57.2241 27.0929 57.6201 26.1133C58.0162 25.1336 58.609 24.3328 59.4053 23.7158C60.1973 23.0991 61.1728 22.8036 62.3232 22.8203C63.182 22.837 64.0906 23.1122 65.041 23.6416C65.9915 24.1711 66.8968 24.8002 67.7598 25.5215V12.2305C70.0442 12.3013 72.3328 12.3728 74.6172 12.4395ZM210.743 12.2812C215.133 12.1437 218.373 13.0979 220.453 15.1865C222.538 17.2752 223.575 20.44 223.575 24.6465C223.575 27.1436 223.083 29.3071 222.1 31.1289C221.116 32.9507 219.919 34.2763 218.519 35.1143C220.182 42.0932 221.845 49.1309 223.509 56.2266C221.066 56.1348 218.619 56.0512 216.176 55.9678C214.796 49.7561 213.415 43.582 212.031 37.4453C211.602 37.4453 211.172 37.4407 210.743 37.4365V55.7881C208.3 55.713 205.853 55.638 203.41 55.5713V12.498C205.853 12.4313 208.3 12.3563 210.743 12.2812ZM197.978 19.1055C194.83 19.1597 191.683 19.2139 188.535 19.2598V30.666C190.799 30.6577 193.062 30.649 195.326 30.6406V36.9072C193.062 36.8989 190.799 36.8941 188.535 36.8857V48.8135C191.683 48.8593 194.83 48.9136 197.978 48.9678V55.4297C195.182 55.3588 192.386 55.2934 189.59 55.2324L181.202 55.0625V13.0098C186.793 12.9097 192.387 12.7853 197.978 12.6436V19.1055ZM167.002 12.7646C168.882 12.7438 170.471 12.9854 171.775 13.498C173.076 14.0108 174.131 14.7531 174.936 15.7285C175.74 16.704 176.328 17.8717 176.703 19.2266C177.078 20.5814 177.262 22.0862 177.262 23.7412C174.861 23.9496 172.464 24.158 170.062 24.3623C170.062 23.662 170.021 22.9576 169.941 22.249C169.862 21.5404 169.721 20.8941 169.517 20.3105C169.312 19.727 169.016 19.2557 168.633 18.9014C168.249 18.547 167.748 18.3718 167.14 18.376C166.189 18.3844 165.531 18.7263 165.168 19.3975C164.805 20.0687 164.626 21.0194 164.626 22.2451C164.626 23.8292 165.135 25.3549 166.156 26.8223C167.173 28.2897 168.545 30.0031 170.267 31.9707C172.326 34.2928 174.011 36.44 175.312 38.3994C176.612 40.3588 177.262 42.531 177.262 44.9072C177.262 46.4081 177.07 47.8012 176.687 49.0811C176.303 50.3607 175.695 51.4654 174.869 52.4033C174.044 53.3413 172.989 54.0663 171.709 54.5791C170.429 55.0919 168.883 55.3343 167.073 55.3135L167.069 55.3096C165.056 55.2846 163.375 54.9879 162.041 54.4209C160.703 53.8539 159.652 53.0413 158.881 51.9824C158.11 50.9235 157.56 49.6514 157.234 48.1631C156.905 46.679 156.742 45.0028 156.742 43.1436C159.144 42.9643 161.545 42.7857 163.942 42.6064C163.942 43.511 163.98 44.3825 164.063 45.2246C164.143 46.0625 164.288 46.8213 164.505 47.4883C164.722 48.1594 165.035 48.6926 165.456 49.0928C165.873 49.493 166.415 49.6938 167.069 49.7021C168.157 49.7104 168.925 49.2977 169.379 48.46C169.833 47.622 170.059 46.6083 170.059 45.416C170.059 44.2237 169.683 42.9815 168.937 41.6934C168.19 40.4051 167.294 39.1831 166.252 38.0283C164.484 36.0607 162.942 34.2432 161.616 32.5674C160.29 30.8914 159.26 29.2484 158.526 27.6309C157.789 26.0176 157.422 24.3251 157.422 22.5576C157.422 21.1652 157.639 19.8807 158.068 18.7051C158.498 17.5297 159.127 16.4999 159.952 15.6162C160.778 14.7366 161.782 14.0442 162.958 13.5439C164.134 13.0437 165.485 12.7814 167.002 12.7646ZM90.5801 12.8477C93.6818 12.9144 96.784 12.9771 99.8857 13.0312C101.22 20.3143 102.558 27.5724 103.892 34.8096C104.004 35.5517 104.117 36.2901 104.233 37.0322H104.371C104.484 36.2901 104.596 35.5517 104.709 34.8096C106.043 27.5765 107.382 20.3645 108.716 13.1689C111.817 13.2106 114.919 13.2482 118.021 13.2773V54.8008C115.757 54.8216 113.493 54.8458 111.226 54.875V26.9219H110.816C110.725 27.5055 110.638 28.0938 110.546 28.6816C109.095 37.4114 107.648 46.1662 106.197 54.9502C104.93 54.971 103.663 54.9879 102.396 55.0088C100.945 46.2456 99.4977 37.4575 98.0469 28.6318C97.9552 28.0398 97.8681 27.4475 97.7764 26.8555H97.3672V55.1006C95.1035 55.1423 92.8398 55.1883 90.5762 55.2383L90.5801 55.2295V12.8477ZM129.231 54.7217L129.228 54.7168C129.229 54.7168 129.23 54.7158 129.231 54.7158V54.7217ZM128.956 13.3564C130.157 17.7714 131.358 22.1822 132.559 26.5889C132.638 27.1891 132.717 27.7894 132.796 28.3896H133C133.079 27.7894 133.158 27.1891 133.237 26.5889C134.438 22.1865 135.639 17.7842 136.84 13.3818H144.039C141.546 21.2943 139.057 29.1943 136.564 37.1025V54.6963C134.119 54.6963 131.677 54.7075 129.231 54.7158V37.1074C126.738 29.1947 124.249 21.265 121.756 13.3105C124.157 13.3314 126.559 13.3439 128.956 13.3564ZM65.5879 28.54C65.0918 28.54 64.6831 28.7152 64.3662 29.082C64.0494 29.4489 63.8906 29.9198 63.8906 30.4951V48.8135C63.8906 49.3721 64.0494 49.835 64.3662 50.2061C64.683 50.577 65.0919 50.7518 65.5879 50.7393V50.7354C66.1088 50.7227 66.6009 50.5224 67.0635 50.1348C67.526 49.7471 67.7598 49.2758 67.7598 48.7256V30.5117C67.7598 30.0366 67.5302 29.5906 67.0635 29.1738C66.6009 28.7529 66.1047 28.5443 65.5879 28.54ZM210.743 18.6221V31.5254C212.102 31.5212 213.179 31.2541 213.971 30.7246C214.763 30.1952 215.329 29.4403 215.667 28.4648C216.005 27.4893 216.176 26.3299 216.176 25C216.176 22.9116 215.783 21.3108 215.004 20.2061C214.224 19.1014 212.803 18.5762 210.743 18.6221ZM233.836 17.6592C231.551 17.7259 229.262 17.792 226.978 17.8545V11.7227C229.262 11.6351 231.551 11.5429 233.836 11.4512V17.6592ZM26.8203 10.5635V17.0127L19.9658 16.7588V10.2129C22.2504 10.3338 24.5357 10.4509 26.8203 10.5635ZM279.777 3.75977C253.596 5.33565 196.281 8.34569 140 8.3457C83.7186 8.3457 26.403 5.33565 0.22168 3.75977V0.836914C26.2821 2.40863 83.6644 5.43066 140 5.43066C196.335 5.43065 253.717 2.40863 279.777 0.836914V3.75977Z" fill="url(#paint0_linear_90_6030)"/>
<defs>
<linearGradient id="paint0_linear_90_6030" x1="140" y1="0.836914" x2="140" y2="67.2363" gradientUnits="userSpaceOnUse">
<stop stop-color="#BA66F0"/>
<stop offset="1" stop-color="#742DFF"/>
</linearGradient>
</defs>
</svg>
